<?xml version="1.0" standalone="no"?>
<!DOCTYPE svg PUBLIC "-//W3C//DTD SVG 20010904//EN" "http://www.w3.org/TR/2001/REC-SVG-20010904/DTD/svg10.dtd">
<svg version="1.0" xmlns="http://www.w3.org/2000/svg" width="450.000000pt" height="500.000000pt" viewBox="0 0 251.000000 299.000000" preserveAspectRatio="xMidYMid meet">
<g transform="translate(0.000000,299.000000) scale(0.100000,-0.100000)" fill="#912B8E" stroke="none">
	
	<path d="M175 2955 c-77 -32 -127 -86 -154 -167 -21 -61 -21 -76 -21 -1054 0
	-962 1 -994 20 -1056 27 -88 67 -139 131 -172 47 -23 64 -26 159 -26 69 0 112
	-4 123 -13 15 -10 17 -40 19 -234 l3 -223 234 223 c128 122 241 227 250 232
	10 6 271 12 701 15 l685 5 47 28 c58 33 89 74 117 150 21 57 21 63 21 1060 0
	988 0 1004 -21 1064 -29 86 -82 144 -157 171 -59 22 -60 22 -1078 22 l-1019
	-1 -60 -24z m2116 -184 l24 -19 0 -1021 0 -1020 -23 -23 -23 -23 -702 -5
	c-386 -3 -703 -6 -705 -8 -1 -1 -50 -47 -110 -103 l-107 -100 -3 105 -3 105
	-199 3 c-192 3 -200 4 -222 26 l-23 23 -3 987 c-2 543 0 1002 3 1020 3 17 16
	41 27 52 21 20 36 20 1034 20 981 0 1012 -1 1035 -19z" />
	
	<path d="M1697 2396 c-62 -17 -112 -66 -138 -135 -19 -51 -20 -73 -17 -330 l3
	-276 27 -52 c45 -84 111 -117 234 -116 161 1 230 74 241 254 l6 89 -92 0 -91
	0 0 -90 c0 -77 -3 -93 -20 -110 -25 -25 -71 -26 -101 -1 l-24 19 -3 289 c-3
	282 -2 290 18 316 17 21 30 27 59 27 57 0 70 -21 73 -119 l3 -83 88 -1 87 -2
	0 60 c-1 125 -38 208 -112 246 -53 27 -173 35 -241 15z" />
	
	<path d="M360 2395 c0 -2 7 -22 15 -42 8 -21 49 -144 90 -273 l75 -234 0 -173
	0 -173 85 0 85 0 0 178 0 178 85 264 c47 146 85 268 85 273 0 4 -36 7 -80 7
	l-79 0 -11 -42 c-18 -67 -50 -178 -67 -233 l-16 -50 -14 40 c-7 22 -30 95 -50
	163 l-36 122 -83 0 c-46 0 -84 -2 -84 -5z"/>
	
	<path d="M1071 2348 c-45 -239 -126 -651 -142 -728 -10 -53 -19 -101 -19 -108
	0 -8 25 -12 83 -12 l84 0 14 98 14 97 75 0 75 0 17 -95 c9 -52 17 -96 17 -97
	2 -7 161 -2 161 4 0 7 -55 290 -132 681 l-42 212 -97 0 -98 0 -10 -52z m160
	-503 l4 -40 -49 -3 c-27 -2 -52 0 -56 5 -6 6 40 327 50 353 3 7 47 -265 51
	-315z"/>
	
	<path d="M573 1380 c-36 -15 -56 -55 -50 -102 4 -33 17 -53 65 -102 59 -59 66
	-71 63 -109 -1 -14 -8 -18 -28 -15 -21 2 -29 10 -37 36 -8 29 -12 33 -35 27
	-36 -9 -37 -11 -21 -58 12 -33 22 -44 53 -56 57 -21 113 -2 134 47 22 54 6 95
	-67 167 -61 60 -73 91 -46 114 19 16 44 4 48 -22 2 -17 11 -23 36 -25 36 -4
	38 3 18 53 -22 51 -74 69 -133 45z"/>
	
	<path d="M861 1377 c-42 -25 -50 -53 -51 -185 0 -143 10 -174 65 -192 45 -15
	108 -5 132 22 15 17 18 41 21 163 3 138 3 143 -20 170 -19 22 -35 28 -74 32
	-30 2 -58 -2 -73 -10z m87 -49 c8 -8 12 -54 12 -140 0 -118 -1 -128 -21 -138
	-41 -23 -49 0 -49 145 0 133 2 142 36 144 5 1 15 -4 22 -11z"/>
	
	<path d="M1179 1375 c-38 -21 -49 -63 -48 -184 0 -142 11 -172 68 -190 87 -28
	151 18 151 109 0 28 -3 30 -35 30 -33 0 -35 -2 -35 -34 0 -32 -21 -66 -40 -66
	-5 0 -16 10 -24 22 -12 17 -16 48 -16 123 0 119 5 142 33 151 25 8 47 -18 47
	-58 0 -25 3 -28 35 -28 32 0 35 2 35 30 0 43 -26 89 -56 100 -36 14 -85 12
	-115 -5z"/>
	
	<path d="M1930 1193 l0 -193 80 0 c79 0 80 0 80 25 0 23 -4 25 -45 25 l-45 0
	0 164 0 164 -35 4 -35 4 0 -193z"/>
	
	<path d="M1448 1190 l-3 -190 38 0 37 0 0 190 0 190 -35 0 -34 0 -3 -190z"/>
	
	<path d="M1646 1198 c-20 -101 -36 -186 -36 -190 0 -5 15 -8 33 -8 31 0 34 3
	43 43 8 38 12 42 39 42 27 0 31 -4 39 -42 9 -40 12 -43 44 -43 27 0 32 3 28
	18 -2 9 -19 95 -37 190 l-33 172 -41 0 -42 0 -37 -182z m99 -17 c7 -50 6 -51
	-19 -51 -30 0 -30 1 -14 89 12 72 19 65 33 -38z"/>

</g>
</svg>
